<svg xmlns="http://www.w3.org/2000/svg" xmlns:xlink="http://www.w3.org/1999/xlink" width="300" zoomAndPan="magnify" viewBox="0 0 112.5 37.5" height="100" preserveAspectRatio="xMidYMid meet" version="1.0"><defs><g/></defs><g fill="#ffb71b" fill-opacity="1"><g transform="translate(1.360763, 27.34045)"><g><path d="M 16.484375 -8.96875 C 16.484375 -6.101562 15.691406 -3.890625 14.109375 -2.328125 C 12.523438 -0.773438 10.300781 0 7.4375 0 L 1.859375 0 L 1.859375 -17.21875 L 7.828125 -17.21875 C 10.585938 -17.21875 12.71875 -16.507812 14.21875 -15.09375 C 15.726562 -13.6875 16.484375 -11.644531 16.484375 -8.96875 Z M 11.65625 -8.8125 C 11.65625 -10.382812 11.34375 -11.550781 10.71875 -12.3125 C 10.09375 -13.082031 9.144531 -13.46875 7.875 -13.46875 L 6.515625 -13.46875 L 6.515625 -3.8125 L 7.546875 -3.8125 C 8.960938 -3.8125 10 -4.222656 10.65625 -5.046875 C 11.320312 -5.867188 11.65625 -7.125 11.65625 -8.8125 Z M 11.65625 -8.8125 "/></g></g></g><g fill="#ffb71b" fill-opacity="1"><g transform="translate(19.064798, 27.34045)"><g><path d="M 11.09375 0 L 10.515625 -1.65625 L 10.25 -1.65625 C 9.863281 -1.039062 9.328125 -0.570312 8.640625 -0.25 C 7.953125 0.0703125 7.144531 0.234375 6.21875 0.234375 C 4.75 0.234375 3.601562 -0.191406 2.78125 -1.046875 C 1.96875 -1.898438 1.5625 -3.101562 1.5625 -4.65625 L 1.5625 -13.34375 L 6.171875 -13.34375 L 6.171875 -6.0625 C 6.171875 -5.1875 6.296875 -4.523438 6.546875 -4.078125 C 6.796875 -3.628906 7.203125 -3.40625 7.765625 -3.40625 C 8.554688 -3.40625 9.117188 -3.71875 9.453125 -4.34375 C 9.796875 -4.96875 9.96875 -6.019531 9.96875 -7.5 L 9.96875 -13.34375 L 14.578125 -13.34375 L 14.578125 0 Z M 11.09375 0 "/></g></g></g><g fill="#ffb71b" fill-opacity="1"><g transform="translate(35.225767, 27.34045)"><g><path d="M 14.34375 -6.703125 C 14.34375 -4.515625 13.753906 -2.8125 12.578125 -1.59375 C 11.398438 -0.375 9.753906 0.234375 7.640625 0.234375 C 5.617188 0.234375 4.007812 -0.390625 2.8125 -1.640625 C 1.613281 -2.890625 1.015625 -4.578125 1.015625 -6.703125 C 1.015625 -8.878906 1.597656 -10.566406 2.765625 -11.765625 C 3.941406 -12.972656 5.59375 -13.578125 7.71875 -13.578125 C 9.03125 -13.578125 10.1875 -13.296875 11.1875 -12.734375 C 12.195312 -12.179688 12.972656 -11.382812 13.515625 -10.34375 C 14.066406 -9.300781 14.34375 -8.085938 14.34375 -6.703125 Z M 5.6875 -6.703125 C 5.6875 -5.554688 5.835938 -4.679688 6.140625 -4.078125 C 6.453125 -3.484375 6.96875 -3.1875 7.6875 -3.1875 C 8.40625 -3.1875 8.910156 -3.484375 9.203125 -4.078125 C 9.492188 -4.679688 9.640625 -5.554688 9.640625 -6.703125 C 9.640625 -7.835938 9.488281 -8.695312 9.1875 -9.28125 C 8.894531 -9.863281 8.390625 -10.15625 7.671875 -10.15625 C 6.960938 -10.15625 6.453125 -9.863281 6.140625 -9.28125 C 5.835938 -8.707031 5.6875 -7.847656 5.6875 -6.703125 Z M 5.6875 -6.703125 "/></g></g></g><g fill="#ffb71b" fill-opacity="1"><g transform="translate(50.597535, 27.34045)"><g><path d="M 7.671875 0.234375 C 5.484375 0.234375 3.828125 -0.351562 2.703125 -1.53125 C 1.578125 -2.707031 1.015625 -4.398438 1.015625 -6.609375 C 1.015625 -8.828125 1.625 -10.539062 2.84375 -11.75 C 4.0625 -12.96875 5.789062 -13.578125 8.03125 -13.578125 C 9.582031 -13.578125 11.039062 -13.238281 12.40625 -12.5625 L 11.046875 -9.171875 C 10.492188 -9.410156 9.976562 -9.601562 9.5 -9.75 C 9.03125 -9.894531 8.539062 -9.96875 8.03125 -9.96875 C 7.289062 -9.96875 6.710938 -9.675781 6.296875 -9.09375 C 5.890625 -8.507812 5.6875 -7.6875 5.6875 -6.625 C 5.6875 -4.488281 6.476562 -3.421875 8.0625 -3.421875 C 9.40625 -3.421875 10.695312 -3.816406 11.9375 -4.609375 L 11.9375 -0.9375 C 10.757812 -0.15625 9.335938 0.234375 7.671875 0.234375 Z M 7.671875 0.234375 "/></g></g></g><g fill="#ffffff" fill-opacity="1"><g transform="translate(63.612765, 27.34045)"><g><path d="M 9.453125 0 L 4.8125 0 L 4.8125 -13.421875 L 0.59375 -13.421875 L 0.59375 -17.21875 L 13.65625 -17.21875 L 13.65625 -13.421875 L 9.453125 -13.421875 Z M 9.453125 0 "/></g></g></g><g fill="#ffffff" fill-opacity="1"><g transform="translate(77.865515, 27.34045)"><g><path d="M 12.421875 0 L 11.578125 -3.234375 L 5.984375 -3.234375 L 5.109375 0 L 0 0 L 5.625 -17.296875 L 11.828125 -17.296875 L 17.515625 0 Z M 10.609375 -7.046875 L 9.875 -9.875 C 9.695312 -10.5 9.484375 -11.3125 9.234375 -12.3125 C 8.992188 -13.3125 8.832031 -14.023438 8.75 -14.453125 C 8.675781 -14.054688 8.535156 -13.394531 8.328125 -12.46875 C 8.117188 -11.550781 7.660156 -9.742188 6.953125 -7.046875 Z M 10.609375 -7.046875 "/></g></g></g><g fill="#ffffff" fill-opacity="1"><g transform="translate(95.381085, 27.34045)"><g><path d="M 14.359375 -11.75 C 14.359375 -9.820312 13.789062 -8.332031 12.65625 -7.28125 C 11.519531 -6.238281 9.910156 -5.71875 7.828125 -5.71875 L 6.515625 -5.71875 L 6.515625 0 L 1.859375 0 L 1.859375 -17.21875 L 7.828125 -17.21875 C 9.992188 -17.21875 11.625 -16.742188 12.71875 -15.796875 C 13.8125 -14.847656 14.359375 -13.5 14.359375 -11.75 Z M 6.515625 -9.5 L 7.359375 -9.5 C 8.054688 -9.5 8.609375 -9.695312 9.015625 -10.09375 C 9.429688 -10.488281 9.640625 -11.03125 9.640625 -11.71875 C 9.640625 -12.882812 9 -13.46875 7.71875 -13.46875 L 6.515625 -13.46875 Z M 6.515625 -9.5 "/></g></g></g></svg>